<svg xmlns="http://www.w3.org/2000/svg" viewBox="0 0 48 48"><title>open-book-glyph</title><g id="open-book"><path d="M31.56,5.69h9.7V30.76H30.64l-.59,0-.33,0-.61.06-.37,0-.65.11-.36.07c-.26.06-.52.14-.78.22l-.23.07a6.93,6.93,0,0,0-1,.42l-.23.14a5.42,5.42,0,0,0-.53.33V12.24A6.56,6.56,0,0,1,31.56,5.69Zm-24.82,0h9.7A6.56,6.56,0,0,1,23,12.24V32.29a5.4,5.4,0,0,0-.52-.33l-.24-.15a7.1,7.1,0,0,0-.95-.42L21,31.33c-.25-.08-.51-.16-.76-.22L19.91,31l-.64-.11-.38,0-.6-.06-.34,0-.59,0H6.74V5.69ZM46,35.7a.75.75,0,0,1-.75.74H32.8c-5.72,0-8.05,1.48-8.05,5.12a.74.74,0,1,1-1.49,0c0-3.64-2.33-5.12-8-5.12H2.75A.75.75,0,0,1,2,35.7V8.87a.75.75,0,0,1,.75-.75h2V31.77a1,1,0,0,0,1,1H16.44c5.43,0,6.55,1.61,6.55,4a1,1,0,1,0,2,0c0-2.42,1.11-4,6.55-4H42.27a1,1,0,0,0,1-1V8.12h2a.75.75,0,0,1,.75.75Z" fill="#fff"/></g></svg>