<svg width="16" height="16" viewBox="0 0 16 16" fill="none" xmlns="http://www.w3.org/2000/svg">
<path d="M15.5828 0.191193C15.3672 0.03667 15.0991 -0.0259078 14.8375 0.0172251C14.5758 0.060358 14.342 0.205669 14.1874 0.421193L4.83075 13.4665L1.70742 10.3405C1.61457 10.2476 1.50434 10.1739 1.38302 10.1237C1.26169 10.0734 1.13165 10.0475 1.00032 10.0474C0.868987 10.0474 0.738934 10.0732 0.617587 10.1235C0.496239 10.1737 0.385973 10.2473 0.293085 10.3402C0.200196 10.433 0.126505 10.5433 0.0762171 10.6646C0.0259296 10.7859 3.09789e-05 10.916 2.77749e-08 11.0473C-3.09234e-05 11.1786 0.0258064 11.3087 0.0760368 11.43C0.126267 11.5514 0.199907 11.6616 0.292751 11.7545L4.24942 15.7105C4.3533 15.8105 4.47725 15.8872 4.61304 15.9356C4.74884 15.984 4.89337 16.003 5.03706 15.9912C5.18074 15.9795 5.32029 15.9374 5.44644 15.8676C5.57259 15.7978 5.68246 15.702 5.76875 15.5865L15.8128 1.58653C15.9673 1.37099 16.0299 1.1029 15.9867 0.841228C15.9436 0.579555 15.7983 0.345732 15.5828 0.191193Z" fill="#f54343"/>
</svg>
