<svg xmlns="http://www.w3.org/2000/svg" xmlns:xlink="http://www.w3.org/1999/xlink" width="25" height="25" viewBox="0 0 25 25">
  <defs>
    <clipPath id="clip-delete">
      <rect width="25" height="25"/>
    </clipPath>
  </defs>
  <g id="delete" clip-path="url(#clip-delete)">
    <g id="Group_13199" data-name="Group 13199" transform="translate(-15.649 -18)">
      <path id="Path_229" data-name="Path 229" d="M52.959,41.912a.586.586,0,0,0-.586.586V53.563a.585.585,0,0,0,1.171,0V42.5A.585.585,0,0,0,52.959,41.912Z" transform="translate(-21.355 -14.855)" fill="red"/>
      <path id="Path_230" data-name="Path 230" d="M34.72,41.912a.586.586,0,0,0-.586.586V53.563a.586.586,0,0,0,1.171,0V42.5A.586.586,0,0,0,34.72,41.912Z" transform="translate(-10.024 -14.855)" fill="red"/>
      <path id="Path_231" data-name="Path 231" d="M19.66,25.443V39.868a3.231,3.231,0,0,0,.859,2.228,2.885,2.885,0,0,0,2.092.9H33.688a2.882,2.882,0,0,0,2.092-.9,3.23,3.23,0,0,0,.859-2.228V25.443a2.236,2.236,0,0,0-.573-4.4h-3v-.732A2.3,2.3,0,0,0,30.749,18h-5.2a2.3,2.3,0,0,0-2.319,2.313v.732h-3a2.236,2.236,0,0,0-.574,4.4ZM33.688,41.829H22.611a1.854,1.854,0,0,1-1.78-1.961V25.494H35.468V39.868A1.854,1.854,0,0,1,33.688,41.829ZM24.4,20.313a1.128,1.128,0,0,1,1.148-1.142h5.2A1.128,1.128,0,0,1,31.9,20.313v.732H24.4Zm-4.169,1.9H36.065a1.054,1.054,0,0,1,0,2.108H20.234a1.054,1.054,0,0,1,0-2.108Z" transform="translate(0)" fill="red"/>
      <path id="Path_232" data-name="Path 232" d="M43.839,41.912a.585.585,0,0,0-.585.586V53.563a.585.585,0,0,0,1.171,0V42.5A.586.586,0,0,0,43.839,41.912Z" transform="translate(-15.69 -14.855)" fill="red"/>
    </g>
  </g>
</svg>
