<svg xmlns="http://www.w3.org/2000/svg" width="250" height="100" viewBox="0 0 250 100">
  <g id="_03" data-name="03" transform="translate(-56 -178)">
    <g id="Group_1" data-name="Group 1">
      <rect id="Rectangle_1" data-name="Rectangle 1" width="250" height="100" transform="translate(56 178)" opacity="0.001"/>
      <g id="Group_2" data-name="Group 2" transform="translate(405.574 209.395)">
        <rect id="Rectangle_1-2" data-name="Rectangle 1" width="247.472" height="96.441" transform="translate(-349.574 -29.395)" fill="none"/>
        <g id="Group_1-2" data-name="Group 1" transform="translate(-340.89 -27.704)">
          <path id="Path_1" data-name="Path 1" d="M-227.02-4.679-204.439-24h-40.332v-.217h-19.32v68.06a122.253,122.253,0,0,0,19.32-20.819v-27.7Z" transform="translate(337.848 27.52)" fill="#144894"/>
          <path id="Path_2" data-name="Path 2" d="M-231.785-11.134l19.294-16.508h-54.428V46.039a141,141,0,0,0,15.712-15.162V-11.137Z" transform="translate(337.949 27.642)" fill="#229af4"/>
          <path id="Path_3" data-name="Path 3" d="M-276.781-24.215H-296.1V-24h-40.2l22.582,19.32H-296.1V62.109A113.341,113.341,0,0,0-276.781,50.8V29.943l.222.193V-24.215Z" transform="translate(340.418 27.52)" fill="#ea0078"/>
          <path id="Path_4" data-name="Path 4" d="M-329.961-27.642H-340.57l19.294,16.508h31.361V58.855A129.938,129.938,0,0,0-273.98,48.52V-27.642Z" transform="translate(340.57 27.642)" fill="#fff"/>
          <g id="tazzer_CLEAN" data-name="tazzer CLEAN" transform="translate(125.317 7.386)" style="isolation: isolate">
            <text id="tazzer" transform="translate(0 32)" fill="#229af4" font-size="35" font-family="ProximaNova-Semibold, Proxima Nova" font-weight="600" letter-spacing="0.016em" style="isolation: isolate"><tspan x="0" y="0">tazzer</tspan></text>
            <text id="CLEAN" transform="translate(0 60.612)" fill="#fff" font-size="31" font-family="Times-Roman, Times" letter-spacing="0.016em" style="isolation: isolate"><tspan x="0" y="0">CLEAN</tspan></text>
          </g>
          <path id="Path_5" data-name="Path 5" d="M-219.145,4.424a16.843,16.843,0,0,0-.637-4.582,10.884,10.884,0,0,1-.386-3.677c.018-.275.046-.549.07-.832-.065,0-.115,0-.162,0a13.447,13.447,0,0,0-5.813,1.776c-.3.173-.591.357-.886.535l-.323.244c-.067.063-.132.126-.2.183a8.356,8.356,0,0,0-.675.552A9.329,9.329,0,0,0-230.94,3.7a8.2,8.2,0,0,0,1.112,6.067A22.216,22.216,0,0,0-228.5,11.57a.289.289,0,0,1,.034.289,6.351,6.351,0,0,1-.328.64.606.606,0,0,1-.829.214.584.584,0,0,1-.135-.108,13.24,13.24,0,0,0-2.615-2.406h0a3.774,3.774,0,0,0-.712-.32c-.171-.058-.344-.107-.513-.171A14.1,14.1,0,0,1-239.793,5c-.025-.033-.045-.068-.068-.1a.482.482,0,0,1,.128.114,12.657,12.657,0,0,0,1.746,1.664,16.523,16.523,0,0,0,5.1,2.727,5.869,5.869,0,0,1,1.854,1.02.95.95,0,0,0,.1.067c.019-.069.039-.123.049-.179a6.63,6.63,0,0,0-.174-3.192,5.639,5.639,0,0,0-1.157-2.1,7.068,7.068,0,0,0-3.3-2.031A12.785,12.785,0,0,0-239,2.426a8.286,8.286,0,0,1-2.763-.544c-.193-.075-.386-.156-.589-.237-.015.047-.03.082-.038.119a10.237,10.237,0,0,0,0,4.629c.059.259.128.516.193.772.017.054.045.143.064.193.033.074.072.146.105.219.154.346.28.708.465,1.036a7.119,7.119,0,0,0,2.882,2.8,6.244,6.244,0,0,0,4.667.545c.55-.142,1.078-.367,1.613-.563a.219.219,0,0,1,.218.041,4.968,4.968,0,0,1,.469.466c.07.081.137.165.2.251l.953,1.736a27.627,27.627,0,0,1-2.185,2.9h0v0l-.078.1h0c-.024.031-.049.061-.072.1h.015c-5.239,7.58-13.176,16.106-22.917,24.146-15.5,12.8-31.343,20.888-41.18,21.789,9.548.279,26.678-8.049,43.414-21.866a132.174,132.174,0,0,0,20.446-20.771l3.964-5.53a10.929,10.929,0,0,0,1.817-2.593,4.79,4.79,0,0,0,.482-1.944,20.6,20.6,0,0,1,.2-2.387,18.757,18.757,0,0,1,3.34-7.991c.031-.043.069-.083.1-.124a.622.622,0,0,1-.1.2,16.625,16.625,0,0,0-1.416,2.832,21.691,21.691,0,0,0-1.46,7.449,7.679,7.679,0,0,1-.567,2.72c-.017.043-.027.09-.046.151a2.372,2.372,0,0,0,.245-.008,8.7,8.7,0,0,0,3.975-1.471,7.33,7.33,0,0,0,2.079-2.109A9.231,9.231,0,0,0-219.145,4.424ZM-230.4,13.586l-.447-.579h.021c.168.228.317.425.427.57Z" transform="translate(339.019 26.824)" fill="#00a628"/>
          <path id="Path_6" data-name="Path 6" d="M-266.918-.558V-27.642h66.59l-19.294,16.508h-31.361" transform="translate(337.949 27.642)" fill="#229af4"/>
        </g>
      </g>
    </g>
  </g>
</svg>
