<svg xmlns="http://www.w3.org/2000/svg" xmlns:xlink="http://www.w3.org/1999/xlink" width="50" height="50" viewBox="0 0 50 50">
  <defs>
    <clipPath id="clip-_01">
      <rect width="50" height="50"/>
    </clipPath>
  </defs>
  <g id="_01" data-name="01" clip-path="url(#clip-_01)">
    <g id="Group_13194" data-name="Group 13194" transform="translate(0.532 6.014)">
      <g id="Group_13193" data-name="Group 13193" transform="translate(-6.849 2.702)">
        <path id="Path_562" data-name="Path 562" d="M365.055,278.125a.838.838,0,0,1,.222-1.186c.9-.451,1.039-2.905,2.711-3.133,1.019-.139,2.266,1.379,3.081,2.583l.427-.135a1.668,1.668,0,0,1,1.811.3,2.549,2.549,0,0,1,2.875.334l.793.133a3.167,3.167,0,0,1,.975.55c1.013.848,1.195,2.154,1.364,4.43.113,1.524.2,3.265.24,5.193l-.017,0c.4,1.244,6.736,21.192,8.778,31.366.271,1.346.8,4.167-.706,6.636a7.177,7.177,0,0,1-6.087,3.48,7.673,7.673,0,0,1-4.367-2.015c-5.88-5.229-5.705-35.721-5.682-38.122a7.516,7.516,0,0,0-1.949-.754c-2.181-.376-3.392-3.086-3.568-4.669a1.886,1.886,0,0,1-.016-.227c.027-1.771-1.319-2.248-1.373-3.37A2.163,2.163,0,0,1,365.055,278.125Zm1.979,1.657c.127.752,1.422,1.181,1.422,1.181l.029-2.609a1.624,1.624,0,0,0,.033-.259l-.6-.876-.677.752a1.919,1.919,0,0,1-.734.714A2.241,2.241,0,0,1,367.034,279.782Z" transform="translate(-325.994 -255.046)" fill="#facad1"/>
        <g id="Group_13166" data-name="Group 13166" transform="translate(42.212 21.104)">
          <g id="Group_13162" data-name="Group 13162" transform="translate(3.027 11.901)">
            <path id="Path_563" data-name="Path 563" d="M403.71,317.023c.355,0,.71-.01,1.062-.031a17.935,17.935,0,0,0,2.17-.264.239.239,0,1,0-.087-.469,17.357,17.357,0,0,1-4.254.252.245.245,0,0,0-.254.223.238.238,0,0,0,.224.253C402.948,317.011,403.329,317.023,403.71,317.023Z" transform="translate(-402.346 -316.255)" fill="#e25a7b"/>
          </g>
          <g id="Group_13163" data-name="Group 13163">
            <path id="Path_564" data-name="Path 564" d="M417.821,286.949c.029,0,.059,0,.087,0a1.744,1.744,0,0,0,1.5-1.85.239.239,0,0,0-.234-.243.244.244,0,0,0-.244.233,1.28,1.28,0,0,1-1.057,1.385c-.469.033-.808-.308-.9-.888-.188-3.743,2.316-4.281,2.423-4.3a.238.238,0,1,0-.091-.468c-.03.006-3.02.623-2.807,4.821A1.364,1.364,0,0,0,417.821,286.949Z" transform="translate(-416.486 -280.807)" fill="#e25a7b"/>
          </g>
          <g id="Group_13164" data-name="Group 13164" transform="translate(2.458 0.168)">
            <path id="Path_565" data-name="Path 565" d="M410.578,287.427a1.347,1.347,0,0,0,.487-.093,1.873,1.873,0,0,0,1.015-1.885.239.239,0,0,0-.239-.232h-.007a.239.239,0,0,0-.233.245,1.433,1.433,0,0,1-.712,1.429.824.824,0,0,1-.492.037c-.628-.16-.923-1.209-.984-1.6-.3-1.869,2.246-3.567,2.272-3.585a.238.238,0,0,0,.068-.33.241.241,0,0,0-.332-.067c-.115.076-2.824,1.888-2.48,4.056.011.07.28,1.716,1.338,1.987A1.207,1.207,0,0,0,410.578,287.427Z" transform="translate(-408.91 -281.308)" fill="#e25a7b"/>
          </g>
          <g id="Group_13165" data-name="Group 13165" transform="translate(5.135 0.554)">
            <path id="Path_566" data-name="Path 566" d="M399.885,289.7a.234.234,0,0,0,.07-.011.238.238,0,0,0,.158-.3l-.013-.043a3.36,3.36,0,0,1-.093-2.04,8.809,8.809,0,0,1,.984-1.983.238.238,0,0,0-.029-.285.242.242,0,0,0-.283-.052,8.136,8.136,0,0,0-1.238.757,10.211,10.211,0,0,0-.8.671c-.366.33-.586.529-.909.55a1.026,1.026,0,0,1-.857-.334c-.322-.527.67-2.041,2.469-3.768a.239.239,0,1,0-.333-.343c-1.226,1.177-3.187,3.308-2.545,4.359a1.465,1.465,0,0,0,1.3.562,1.942,1.942,0,0,0,1.2-.672,9.8,9.8,0,0,1,.768-.641q.2-.146.4-.278a6.7,6.7,0,0,0-.58,1.322,3.849,3.849,0,0,0,.1,2.316l.013.042A.241.241,0,0,0,399.885,289.7Z" transform="translate(-396.337 -282.458)" fill="#e25a7b"/>
          </g>
        </g>
        <g id="Group_13192" data-name="Group 13192" transform="translate(0)">
          <path id="Path_567" data-name="Path 567" d="M415.963,241.677a13.46,13.46,0,0,1-4.922-8.585c-.689-6.653,4.888-12.632,10.909-14.5,8.051-2.5,14.838,3,15.367,3.441l1.79-1.29c.412.761,4.118,7.861.72,13.973a11.184,11.184,0,0,1-3.313,3.74c-2.949,2.082-5.694,1.577-11.664,2.031A79.857,79.857,0,0,0,415.963,241.677Z" transform="translate(-394.099 -217.946)" fill="#6e4022"/>
          <g id="Group_13172" data-name="Group 13172" transform="translate(18.331 7.365)">
            <g id="Group_13167" data-name="Group 13167" transform="translate(0 19.492)">
              <path id="Path_568" data-name="Path 568" d="M444.182,310.585c2.236,1.29,11.1,6.271,15.722,5.512.453-.075,1.483-.251,1.867-.981.885-1.679-2.281-4.818-2.8-5.321l-.08-.069-.182-8.336L450,297.94a46.7,46.7,0,0,1-.5,8,8.865,8.865,0,0,1-.726,2.234Z" transform="translate(-444.182 -297.94)" fill="#facad1"/>
              <path id="Path_569" data-name="Path 569" d="M453.053,305.944A13.886,13.886,0,0,0,456,308.1a12.44,12.44,0,0,0,6.524,1.693l-.08-.069-.182-8.336-8.709-3.449A46.7,46.7,0,0,1,453.053,305.944Z" transform="translate(-447.742 -297.94)" fill="#ed83a9"/>
            </g>
            <path id="Path_570" data-name="Path 570" d="M447.49,255.456c0,.093-.009.186-.009.271a18.043,18.043,0,0,1-.45,4.924,8.962,8.962,0,0,1-4.538,5.507c-3.288,1.481-6.551.034-7.367-.33a11.06,11.06,0,0,1-2.736-1.929c-.688-.609-1.5-1.379-2.507-2.318-1.5-1.4-2.677-2.606-3.467-3.435a3.4,3.4,0,0,1-2.26-1.159,3.5,3.5,0,0,1-.689-3.088c.255-.88,1.062-2.327,2.481-2.361a2.725,2.725,0,0,1,2.4,1.675,3.844,3.844,0,0,0,.943-.152,4.987,4.987,0,0,0,2.583-2.071,63.508,63.508,0,0,0,5.315-11.109,12.386,12.386,0,0,0,9.288,4.57,48.861,48.861,0,0,1,.863,5.92C447.549,252.842,447.49,254.793,447.49,255.456Z" transform="translate(-422.806 -239.882)" fill="#facad1"/>
            <g id="Group_13168" data-name="Group 13168" transform="translate(14.725 11.388)">
              <path id="Path_571" data-name="Path 571" d="M450.96,274.575a.58.58,0,1,1-.48-.768A.65.65,0,0,1,450.96,274.575Z" transform="translate(-449.831 -273.803)"/>
            </g>
            <g id="Group_13169" data-name="Group 13169" transform="translate(21.214 11.455)">
              <path id="Path_572" data-name="Path 572" d="M431.508,274.772a.58.58,0,1,1-.48-.768A.651.651,0,0,1,431.508,274.772Z" transform="translate(-430.379 -274)"/>
            </g>
            <g id="Group_13170" data-name="Group 13170" transform="translate(18.504 13.281)">
              <path id="Path_573" data-name="Path 573" d="M435.565,284.721a.36.36,0,0,1-.049-.717l.765-.105a.5.5,0,0,0,.435-.5l-.268-3.573a.362.362,0,0,1,.721-.053l.269,3.6a1.231,1.231,0,0,1-1.059,1.241l-.764.1A.32.32,0,0,1,435.565,284.721Z" transform="translate(-435.204 -279.44)" fill="#e25a7b"/>
            </g>
            <path id="Path_574" data-name="Path 574" d="M447.387,265.157c.023.327,1.092.52,2.387.43s2.328-.428,2.3-.755-1.091-.52-2.387-.43S447.364,264.83,447.387,265.157Z" transform="translate(-435.405 -256.156)" fill="#6e4022"/>
            <path id="Path_575" data-name="Path 575" d="M420.246,265.833c-.028.327,1,.681,2.292.791s2.366-.066,2.394-.392-1-.681-2.293-.791S420.274,265.506,420.246,265.833Z" transform="translate(-399.204 -256.838)" fill="#6e4022"/>
            <g id="Group_13171" data-name="Group 13171" transform="translate(2.166 13.033)">
              <path id="Path_576" data-name="Path 576" d="M486.411,282.242a.361.361,0,0,1-.327-.207l-1.333-2.82a.361.361,0,0,1,.655-.307l1.333,2.82a.361.361,0,0,1-.327.514Z" transform="translate(-484.717 -278.701)" fill="#e25a7b"/>
            </g>
          </g>
          <g id="Group_13181" data-name="Group 13181" transform="translate(0 16.861)">
            <g id="Group_13173" data-name="Group 13173" transform="translate(21.663 8.766)">
              <path id="Path_577" data-name="Path 577" d="M472,300.552a.423.423,0,0,0,.183-.805,17.3,17.3,0,0,1-4.927-3.483,16.945,16.945,0,0,1-1.552-1.814.424.424,0,0,0-.684.5,17.758,17.758,0,0,0,1.629,1.905,18.142,18.142,0,0,0,5.168,3.654A.425.425,0,0,0,472,300.552Z" transform="translate(-464.941 -294.277)" fill="#fff"/>
            </g>
            <g id="Group_13179" data-name="Group 13179">
              <path id="Path_578" data-name="Path 578" d="M505.205,272.442a.838.838,0,0,0-.243-1.182c-.9-.435-1.09-2.887-2.766-3.085-1.021-.121-2.241,1.418-3.035,2.636l-.43-.127a1.667,1.667,0,0,0-1.8.334,2.549,2.549,0,0,0-2.869.384l-.79.147a3.162,3.162,0,0,0-.965.567c-1,.865-1.157,2.174-1.287,4.453-.087,1.525-.148,3.267-.149,5.2l.017,0c-.375,1.251-6.363,21.305-8.227,31.514-.247,1.35-.723,4.18.823,6.623a7.178,7.178,0,0,0,6.148,3.373,9.384,9.384,0,0,0,4.331-2.09c5.654-4.99,1.34-14.9,3.813-31.854.4-2.772.883-5,1.2-6.361a7.431,7.431,0,0,1,.824-.413,7.561,7.561,0,0,1,1.112-.375c2.174-.414,3.338-3.145,3.486-4.73a1.919,1.919,0,0,0,.013-.227c-.058-1.771,1.279-2.271,1.314-3.394A2.166,2.166,0,0,0,505.205,272.442Zm-1.949,1.691c-.114.754-1.4,1.206-1.4,1.206l-.074-2.608a1.541,1.541,0,0,1-.038-.258l.586-.886.69.74a1.923,1.923,0,0,0,.747.7A2.236,2.236,0,0,0,503.256,274.134Z" transform="translate(-482.391 -268.168)" fill="#facad1"/>
              <g id="Group_13178" data-name="Group 13178" transform="translate(9.686 2.455)">
                <g id="Group_13174" data-name="Group 13174" transform="translate(2.004 11.901)">
                  <path id="Path_579" data-name="Path 579" d="M506.348,311.7c.381,0,.762-.012,1.14-.036a.239.239,0,0,0,.224-.253.248.248,0,0,0-.254-.223,17.4,17.4,0,0,1-4.254-.252.239.239,0,1,0-.087.469,17.927,17.927,0,0,0,2.17.264Q505.815,311.7,506.348,311.7Z" transform="translate(-502.92 -310.929)" fill="#e25a7b"/>
                </g>
                <g id="Group_13175" data-name="Group 13175" transform="translate(6.72)">
                  <path id="Path_580" data-name="Path 580" d="M495.622,281.622a1.355,1.355,0,0,0,1.321-1.29c.214-4.224-2.774-4.842-2.8-4.847a.239.239,0,1,0-.091.468c.108.021,2.61.56,2.419,4.329-.092.554-.433.893-.9.862a1.28,1.28,0,0,1-1.057-1.385.24.24,0,0,0-.479.01,1.744,1.744,0,0,0,1.5,1.85C495.563,281.621,495.592,281.622,495.622,281.622Z" transform="translate(-493.854 -275.481)" fill="#e25a7b"/>
                </g>
                <g id="Group_13176" data-name="Group 13176" transform="translate(4.193 0.167)">
                  <path id="Path_581" data-name="Path 581" d="M502.718,282.1a1.211,1.211,0,0,0,.3-.037c1.034-.265,1.31-1.811,1.338-1.986.343-2.165-2.365-3.98-2.48-4.056a.239.239,0,1,0-.265.4c.026.017,2.567,1.719,2.272,3.584,0,.013-.234,1.407-.985,1.6a.83.83,0,0,1-.492-.037,1.432,1.432,0,0,1-.712-1.429.239.239,0,0,0-.233-.245.229.229,0,0,0-.246.232,1.874,1.874,0,0,0,1.014,1.886A1.355,1.355,0,0,0,502.718,282.1Z" transform="translate(-501.215 -275.979)" fill="#e25a7b"/>
                </g>
                <g id="Group_13177" data-name="Group 13177" transform="translate(0 0.555)">
                  <path id="Path_582" data-name="Path 582" d="M510.38,284.379a.239.239,0,0,0,.229-.169l.013-.041a3.848,3.848,0,0,0,.1-2.317,6.7,6.7,0,0,0-.58-1.322q.2.132.4.277a9.784,9.784,0,0,1,.768.642,1.941,1.941,0,0,0,1.2.672,1.464,1.464,0,0,0,1.3-.562c.642-1.052-1.319-3.182-2.545-4.359a.24.24,0,0,0-.338.006.237.237,0,0,0,.006.337c1.5,1.436,2.84,3.159,2.468,3.768a1.025,1.025,0,0,1-.856.334c-.324-.021-.544-.22-.91-.55a10.281,10.281,0,0,0-.8-.671,8.116,8.116,0,0,0-1.238-.757.241.241,0,0,0-.282.052.238.238,0,0,0-.029.285,8.848,8.848,0,0,1,.984,1.983,3.407,3.407,0,0,1-.093,2.041l-.013.042a.239.239,0,0,0,.159.3A.243.243,0,0,0,510.38,284.379Z" transform="translate(-509.24 -277.133)" fill="#e25a7b"/>
                </g>
              </g>
            </g>
            <g id="Group_13180" data-name="Group 13180" transform="translate(20.057 4.345)">
              <path id="Path_583" data-name="Path 583" d="M471.135,283.774h0a.424.424,0,0,0,.42-.427,1.625,1.625,0,0,1,.417-1.246c.189-.15.508-.267,2.113.083a24.182,24.182,0,0,1,3.217.941.423.423,0,1,0,.3-.793,25.032,25.032,0,0,0-3.331-.974c-1.616-.352-2.3-.332-2.824.082a2.305,2.305,0,0,0-.737,1.916A.424.424,0,0,0,471.135,283.774Z" transform="translate(-470.71 -281.11)" fill="#fff"/>
            </g>
            <path id="Path_584" data-name="Path 584" d="M439.649,284.6a18.074,18.074,0,0,1-.45,4.924,8.963,8.963,0,0,1-4.538,5.508c-3.288,1.481-6.551.034-7.367-.33a11.049,11.049,0,0,1-2.736-1.929,24.7,24.7,0,0,1-1.65-6.326,24.43,24.43,0,0,1-.18-3.074l12.76-.413Z" transform="translate(-396.416 -277.993)" fill="#3fbfb6"/>
          </g>
          <g id="Group_13185" data-name="Group 13185" transform="translate(30.63 24.521)">
            <g id="Group_13182" data-name="Group 13182" transform="translate(0.434 5.411)">
              <path id="Path_585" data-name="Path 585" d="M436.109,308.4a16.607,16.607,0,0,0,1.722-.094.423.423,0,1,0-.078-.842,16.189,16.189,0,0,1-2.159.087c-.249,0-.546-.006-.928-.006a49.177,49.177,0,0,1-6.473-.444.423.423,0,1,0-.115.838,50.009,50.009,0,0,0,6.586.452c.38,0,.675,0,.922.006C435.784,308.4,435.952,308.4,436.109,308.4Z" transform="translate(-427.711 -307.101)" fill="#6fc8bf"/>
            </g>
            <g id="Group_13183" data-name="Group 13183" transform="translate(0.775 2.733)">
              <path id="Path_586" data-name="Path 586" d="M435.148,300.425a.423.423,0,0,0,.033-.845c-1.013-.079-1.65-.109-2.457-.147-.381-.018-.8-.037-1.3-.064-2.231-.121-4.5-.2-6.735-.246a.415.415,0,0,0-.433.415.424.424,0,0,0,.417.431c2.229.042,4.485.124,6.705.244.508.028.924.047,1.308.065.8.038,1.43.067,2.431.145Z" transform="translate(-424.254 -299.122)" fill="#6fc8bf"/>
            </g>
            <g id="Group_13184" data-name="Group 13184">
              <path id="Path_587" data-name="Path 587" d="M435.259,292.633a.423.423,0,0,0,.1-.835c-.451-.105-.612-.136-1.315-.264-.3-.054-1.878-.331-3.551-.461a37.156,37.156,0,0,0-6.855.168.423.423,0,1,0,.1.841,36.3,36.3,0,0,1,6.693-.165c1.631.126,3.172.4,3.465.45.7.126.839.154,1.273.255A.43.43,0,0,0,435.259,292.633Z" transform="translate(-423.259 -290.983)" fill="#6fc8bf"/>
            </g>
          </g>
          <g id="Group_13191" data-name="Group 13191" transform="translate(22.588 16.751)">
            <g id="Group_13186" data-name="Group 13186" transform="translate(0 2.396)">
              <path id="Path_588" data-name="Path 588" d="M456.935,275.3H465.9a.161.161,0,1,0,0-.322h-8.963a.161.161,0,1,0,0,.322Z" transform="translate(-456.774 -274.977)" fill="#fff"/>
            </g>
            <g id="Group_13187" data-name="Group 13187" transform="translate(13.164 2.396)">
              <path id="Path_589" data-name="Path 589" d="M436.7,275.3h2.551a.161.161,0,1,0,0-.322H436.7a.161.161,0,1,0,0,.322Z" transform="translate(-436.535 -274.977)" fill="#fff"/>
            </g>
            <g id="Group_13188" data-name="Group 13188" transform="translate(19.915 2.396)">
              <path id="Path_590" data-name="Path 590" d="M420.618,275.3h1.163a.161.161,0,1,0,0-.322h-1.163a.161.161,0,1,0,0,.322Z" transform="translate(-420.456 -274.977)" fill="#fff"/>
            </g>
            <g id="Group_13189" data-name="Group 13189" transform="translate(15.715)">
              <path id="Path_591" data-name="Path 591" d="M426.2,272.955a2.577,2.577,0,1,0-2.262-2.558A2.426,2.426,0,0,0,426.2,272.955Zm0-4.793a2.258,2.258,0,1,1-1.939,2.235A2.1,2.1,0,0,1,426.2,268.162Z" transform="translate(-423.943 -267.84)" fill="#fff"/>
            </g>
            <g id="Group_13190" data-name="Group 13190" transform="translate(8.963)">
              <path id="Path_592" data-name="Path 592" d="M446.443,272.955a2.577,2.577,0,1,0-2.262-2.558A2.426,2.426,0,0,0,446.443,272.955Zm0-4.793A2.258,2.258,0,1,1,444.5,270.4,2.1,2.1,0,0,1,446.443,268.162Z" transform="translate(-444.181 -267.84)" fill="#fff"/>
            </g>
          </g>
        </g>
      </g>
    </g>
  </g>
</svg>
