<svg xmlns="http://www.w3.org/2000/svg" xmlns:xlink="http://www.w3.org/1999/xlink" width="50" height="50" viewBox="0 0 50 50">
  <defs>
    <clipPath id="clip-_05">
      <rect width="50" height="50"/>
    </clipPath>
  </defs>
  <g id="_05" data-name="05" clip-path="url(#clip-_05)">
    <g id="surface1" transform="translate(-16.501 -14)">
      <g id="Group_13161" data-name="Group 13161" transform="translate(20.211 14)">
        <path id="Path_381" data-name="Path 381" d="M60.541,47.39A25.227,25.227,0,0,1,54.5,56.8a31.625,31.625,0,0,1-11.808,7,3.631,3.631,0,0,1-1.147.2H41.5a3.6,3.6,0,0,1-1.188-.2,31.622,31.622,0,0,1-11.821-6.992,25.172,25.172,0,0,1-6.041-9.41c-2.441-6.622-2.3-13.917-2.19-19.78l0-.09c.023-.484.037-.993.045-1.554a5.3,5.3,0,0,1,4.99-5.191,20.566,20.566,0,0,0,14-5.9l.033-.03a3.2,3.2,0,0,1,4.349,0l.033.03a20.566,20.566,0,0,0,14,5.9A5.3,5.3,0,0,1,62.7,25.973c.008.565.022,1.073.045,1.554v.038C62.853,33.438,62.991,40.748,60.541,47.39Z" transform="translate(-20.211 -14)" fill="#00dd80"/>
      </g>
      <path id="Path_382" data-name="Path 382" d="M71.208,47.391A25.227,25.227,0,0,1,65.166,56.8a31.625,31.625,0,0,1-11.808,7,3.631,3.631,0,0,1-1.147.2V14a3.206,3.206,0,0,1,2.131.851l.033.03a20.566,20.566,0,0,0,14,5.9,5.3,5.3,0,0,1,4.991,5.191c.008.565.022,1.073.045,1.554v.038C73.519,33.438,73.657,40.748,71.208,47.391Z" transform="translate(-10.666 0)" fill="#00aa63"/>
      <path id="Path_383" data-name="Path 383" d="M58.376,45.269A12.477,12.477,0,0,1,45.958,57.731h-.044a12.462,12.462,0,0,1,0-24.923h.044A12.477,12.477,0,0,1,58.376,45.269Z" transform="translate(-4.414 -6.269)" fill="#fff"/>
      <path id="Path_384" data-name="Path 384" d="M64.628,45.269A12.477,12.477,0,0,1,52.211,57.731V32.808A12.477,12.477,0,0,1,64.628,45.269Z" transform="translate(-10.666 -6.269)" fill="#e1ebf0"/>
      <path id="Path_385" data-name="Path 385" d="M54.66,47.557l-5.612,5.613-1.213,1.213a1.469,1.469,0,0,1-2.075,0l-2.607-2.609A1.467,1.467,0,0,1,45.227,49.7L46.8,51.27l5.788-5.788a1.467,1.467,0,0,1,2.074,2.075Z" transform="translate(-7.504 -10.35)" fill="#b4d2d7"/>
      <path id="Path_386" data-name="Path 386" d="M57.823,47.557l-5.612,5.613v-4.15l3.538-3.537a1.467,1.467,0,0,1,2.074,2.075Z" transform="translate(-10.666 -10.35)" fill="#6fa5aa"/>
    </g>
  </g>
</svg>
