<svg xmlns="http://www.w3.org/2000/svg" xmlns:xlink="http://www.w3.org/1999/xlink" width="50" height="50" viewBox="0 0 50 50">
  <defs>
    <clipPath id="clip-_06">
      <rect width="50" height="50"/>
    </clipPath>
  </defs>
  <g id="_06" data-name="06" clip-path="url(#clip-_06)">
    <g id="Page-1">
      <g id="_031---No-Virus" data-name="031---No-Virus">
        <path id="Shape" d="M25,0A25,25,0,1,0,50,25,25,25,0,0,0,25,0ZM8,38.224A21.535,21.535,0,0,1,38.224,8a.852.852,0,0,1,.069,1.276L9.276,38.293A.852.852,0,0,1,8,38.224Zm18.8,8.25A21.43,21.43,0,0,1,11.776,42a.852.852,0,0,1-.069-1.276L40.724,11.707A.852.852,0,0,1,42,11.776a21.535,21.535,0,0,1-15.2,34.7Z" fill="#e54c3c"/>
        <path id="Shape-2" data-name="Shape" d="M48.306,28.634a21.535,21.535,0,0,1-34.7,15.2.852.852,0,0,1-.069-1.276L42.556,13.539a.852.852,0,0,1,1.276.069,21.43,21.43,0,0,1,4.474,15.026Z" transform="translate(-1.832 -1.832)" fill="#fff"/>
        <path id="Shape-3" data-name="Shape" d="M38.845,9.828,9.828,38.845a.852.852,0,0,1-1.276-.069A21.535,21.535,0,0,1,38.776,8.552a.852.852,0,0,1,.069,1.276Z" transform="translate(-0.552 -0.552)" fill="#fff"/>
        <g id="Group_13096" data-name="Group 13096" transform="translate(9.483 9.483)">
          <path id="Rectangle-path" d="M28,11h1.724v5.172H28Z" transform="translate(-13.345 -11)" fill="#338f7c"/>
          <path id="Rectangle-path-2" data-name="Rectangle-path" d="M0,0H1.724V4.9H0Z" transform="matrix(0.866, -0.5, 0.5, 0.866, 7.081, 2.631)" fill="#338f7c"/>
          <path id="Rectangle-path-3" data-name="Rectangle-path" d="M0,0H1.724V5.128H0Z" transform="matrix(0.5, -0.866, 0.866, 0.5, 1.666, 8.518)" fill="#338f7c"/>
          <path id="Rectangle-path-4" data-name="Rectangle-path" d="M11,28h5.172v1.724H11Z" transform="translate(-11 -13.345)" fill="#338f7c"/>
          <path id="Rectangle-path-5" data-name="Rectangle-path" d="M28,41h1.724v5.172H28Z" transform="translate(-13.345 -15.138)" fill="#338f7c"/>
          <path id="Rectangle-path-6" data-name="Rectangle-path" d="M0,0H1.724V4.9H0Z" transform="matrix(0.866, -0.5, 0.5, 0.866, 20.011, 25.027)" fill="#338f7c"/>
          <path id="Rectangle-path-7" data-name="Rectangle-path" d="M0,0H1.724V5.128H0Z" transform="matrix(0.5, -0.866, 0.866, 0.5, 24.064, 21.451)" fill="#338f7c"/>
          <path id="Rectangle-path-8" data-name="Rectangle-path" d="M41,28h5.172v1.724H41Z" transform="translate(-15.138 -13.345)" fill="#338f7c"/>
        </g>
        <ellipse id="Oval" cx="2" cy="1.5" rx="2" ry="1.5" transform="translate(23 7)" fill="#f2d45b"/>
        <circle id="Oval-2" data-name="Oval" cx="1.724" cy="1.724" r="1.724" transform="translate(15.086 9.091)" fill="#f2d45b"/>
        <circle id="Oval-3" data-name="Oval" cx="1.724" cy="1.724" r="1.724" transform="translate(9.091 15.086)" fill="#f2d45b"/>
        <ellipse id="Oval-4" data-name="Oval" cx="1.5" cy="2" rx="1.5" ry="2" transform="translate(7 23)" fill="#f2d45b"/>
        <ellipse id="Oval-5" data-name="Oval" cx="2" cy="1.5" rx="2" ry="1.5" transform="translate(23 40)" fill="#f2d45b"/>
        <circle id="Oval-6" data-name="Oval" cx="1.724" cy="1.724" r="1.724" transform="translate(31.466 37.46)" fill="#f2d45b"/>
        <circle id="Oval-7" data-name="Oval" cx="1.724" cy="1.724" r="1.724" transform="translate(37.46 31.466)" fill="#f2d45b"/>
        <ellipse id="Oval-8" data-name="Oval" cx="1.5" cy="2" rx="1.5" ry="2" transform="translate(40 23)" fill="#f2d45b"/>
        <path id="Shape-4" data-name="Shape" d="M18.164,33.819A11.2,11.2,0,0,1,33.819,18.164Z" transform="translate(-2.207 -2.207)" fill="#26b899"/>
        <path id="Shape-5" data-name="Shape" d="M36.985,21.33A11.2,11.2,0,0,1,21.33,36.985Z" transform="translate(-2.942 -2.942)" fill="#26b899"/>
        <path id="Shape-6" data-name="Shape" d="M29.7,24.078a2.586,2.586,0,1,0-.621.621" transform="translate(-3.448 -2.759)" fill="#f4eec9"/>
        <path id="Shape-7" data-name="Shape" d="M29.353,31.078A2.853,2.853,0,0,1,30.017,31,3.017,3.017,0,1,1,27,34.017a2.853,2.853,0,0,1,.078-.664" transform="translate(-3.724 -4.276)" fill="#f4eec9"/>
        <circle id="Oval-9" data-name="Oval" cx="1" cy="1" r="1" transform="translate(31 25)" fill="#f8e9af"/>
        <circle id="Oval-10" data-name="Oval" cx="1" cy="1" r="1" transform="translate(17 22)" fill="#f8e9af"/>
      </g>
    </g>
  </g>
</svg>
