<svg xmlns="http://www.w3.org/2000/svg" xmlns:xlink="http://www.w3.org/1999/xlink" width="50" height="50" viewBox="0 0 50 50">
  <defs>
    <clipPath id="clip-_02">
      <rect width="50" height="50"/>
    </clipPath>
  </defs>
  <g id="_02" data-name="02" clip-path="url(#clip-_02)">
    <g id="Group_13196" data-name="Group 13196" transform="translate(1.904 0.144)">
      <g id="Group_13195" data-name="Group 13195" transform="translate(-2.904 -4.615)">
        <g id="Group_52" data-name="Group 52" transform="matrix(0.934, -0.358, 0.358, 0.934, 0, 13.019)">
          <path id="Path_54" data-name="Path 54" d="M2.5,9.916,0,9.048,3.206,0l2.5.868Z" transform="translate(21.028 3.467)" fill="#f47f23"/>
          <g id="Group_51" data-name="Group 51" transform="translate(19.948 0)">
            <path id="Path_55" data-name="Path 55" d="M15.722,7.682,0,2.23.79,0A14.5,14.5,0,0,1,5.157.765a14.94,14.94,0,0,1,3.255,1.6A33.436,33.436,0,0,0,16.38,5.824Z" fill="#ffc10e"/>
            <path id="Path_56" data-name="Path 56" d="M5.808,3.35,0,1.337.474,0,6.282,2.014Z" transform="translate(2.081 3.116)" fill="#ffc10e"/>
          </g>
          <path id="Path_57" data-name="Path 57" d="M7.811,5.581,0,2.873,1.018,0,8.829,2.708Z" transform="translate(18.946 6.935)" fill="#ffc10e"/>
          <path id="Path_58" data-name="Path 58" d="M26.739,14.571c-1,1.155-2.324,2.049-3.1,3.355-.065.114-.132.228-.186.347a8.127,8.127,0,0,0-.592,4.445c.159,1.637.553,3.253.6,4.895a11.985,11.985,0,0,1-2.707,7.93,12.249,12.249,0,0,1-7.3,4.228L2.409,35.43A11.863,11.863,0,0,1,3.559,19.791c1.173-1.16,2.581-2.071,3.83-3.149a8.992,8.992,0,0,0,2.449-3.09,4.99,4.99,0,0,0,.307-.927c.345-1.48,0-3.03.071-4.548a9.1,9.1,0,0,1,2.74-5.762A9.164,9.164,0,0,1,19.034,0c1.151.4,2.3.8,3.447,1.2h.005l4.219,1.464a10.011,10.011,0,0,1,2.039,5.855A8.94,8.94,0,0,1,26.739,14.571Z" transform="translate(0 9.842)" fill="#d8edfa"/>
          <path id="Path_59" data-name="Path 59" d="M23.462,14.062a13.032,13.032,0,0,1-2.707,7.93,12.249,12.249,0,0,1-7.3,4.228L2.409,21.878A11.863,11.863,0,0,1,3.559,6.239C4.732,5.079,6.141,4.168,7.39,3.09A8.993,8.993,0,0,0,9.839,0L24.932,2.808a7.438,7.438,0,0,0-.639.672,8.376,8.376,0,0,0-.843,1.241,8.213,8.213,0,0,0-.592,4.445c.036.356.124,1.02.213,1.617.1.69.149.879.216,1.355C23.289,12.138,23.42,13.076,23.462,14.062Z" transform="translate(0 23.395)" fill="#ffc10e"/>
        </g>
        <path id="Path_53" data-name="Path 53" d="M444.245,392.806s-5.167,11.82.426,11.733S444.245,392.806,444.245,392.806Z" transform="translate(-405.109 -384.8)" fill="#fff"/>
      </g>
    </g>
  </g>
</svg>
