<svg xmlns="http://www.w3.org/2000/svg" xmlns:xlink="http://www.w3.org/1999/xlink" width="25" height="25" viewBox="0 0 25 25">
  <defs>
    <clipPath id="clip-setting">
      <rect width="25" height="25"/>
    </clipPath>
  </defs>
  <g id="setting" clip-path="url(#clip-setting)">
    <g id="badge" transform="translate(0 -0.001)">
      <path id="Path_286" data-name="Path 286" d="M16.508,25a2.824,2.824,0,0,1-1.171-.253l-2.1-.953a1.789,1.789,0,0,0-1.478,0l-2.1.952a2.83,2.83,0,0,1-3.82-1.581l-.808-2.156a1.784,1.784,0,0,0-1.045-1.045l-2.156-.808a2.83,2.83,0,0,1-1.581-3.82l.953-2.1a1.793,1.793,0,0,0,0-1.478l-.954-2.1a2.83,2.83,0,0,1,1.581-3.82l2.156-.808A1.784,1.784,0,0,0,5.037,3.992l.808-2.156A2.83,2.83,0,0,1,9.665.254l2.1.953a1.789,1.789,0,0,0,1.478,0l2.1-.952a2.83,2.83,0,0,1,3.82,1.581l.808,2.156a1.784,1.784,0,0,0,1.045,1.045l2.156.808a2.83,2.83,0,0,1,1.581,3.82l-.953,2.1a1.793,1.793,0,0,0,0,1.478l.952,2.1a2.83,2.83,0,0,1-1.581,3.82l-2.156.808a1.784,1.784,0,0,0-1.045,1.045l-.808,2.156A2.827,2.827,0,0,1,16.508,25ZM12.5,22.594a2.83,2.83,0,0,1,1.17.253l2.1.953a1.788,1.788,0,0,0,2.413-1l.808-2.156a2.825,2.825,0,0,1,1.654-1.654l2.156-.808a1.788,1.788,0,0,0,1-2.413l-.953-2.1a2.832,2.832,0,0,1,0-2.341l.953-2.1a1.788,1.788,0,0,0-1-2.413l-2.156-.808A2.825,2.825,0,0,1,18.989,4.36L18.181,2.2a1.788,1.788,0,0,0-2.413-1l-2.1.953a2.838,2.838,0,0,1-2.34,0L9.234,1.2a1.788,1.788,0,0,0-2.413,1L6.013,4.358A2.829,2.829,0,0,1,4.359,6.013L2.2,6.821a1.789,1.789,0,0,0-1,2.413l.953,2.1a2.832,2.832,0,0,1,0,2.341l-.953,2.1a1.788,1.788,0,0,0,1,2.413l2.156.808a2.825,2.825,0,0,1,1.654,1.654L6.82,22.8a1.788,1.788,0,0,0,2.413,1l2.1-.953a2.862,2.862,0,0,1,1.172-.252Zm.955-20.912h.01Z" transform="translate(0 0)" fill="#06cb20"/>
      <path id="Path_287" data-name="Path 287" d="M8.6,10.209a2.6,2.6,0,1,1,2.6-2.6A2.608,2.608,0,0,1,8.6,10.209Zm0-4.167A1.563,1.563,0,1,0,10.167,7.6,1.565,1.565,0,0,0,8.6,6.042Z" transform="translate(0.251 0.209)" fill="#06cb20"/>
      <path id="Path_288" data-name="Path 288" d="M15.6,19.209a2.6,2.6,0,1,1,2.6-2.6A2.608,2.608,0,0,1,15.6,19.209Zm0-4.167A1.563,1.563,0,1,0,17.167,16.6,1.565,1.565,0,0,0,15.6,15.042Z" transform="translate(0.543 0.585)" fill="#06cb20"/>
      <path id="Path_289" data-name="Path 289" d="M8.521,18.5a.52.52,0,0,1-.439-.8L15.375,6.242a.521.521,0,1,1,.878.559L8.96,18.26A.521.521,0,0,1,8.521,18.5Z" transform="translate(0.334 0.251)" fill="#06cb20"/>
    </g>
  </g>
</svg>
